<mxfile host="app.diagrams.net" agent="Mozilla/5.0 (Windows NT 10.0; Win64; x64) AppleWebKit/537.36 (KHTML, like Gecko) Chrome/127.0.0.0 Safari/537.36 Edg/127.0.0.0" version="24.7.7" pages="2">
  <diagram name="Logical" id="fbHoKywOVAFv37olhsXn">
    <mxGraphModel dx="1282" dy="663" grid="1" gridSize="10" guides="1" tooltips="1" connect="1" arrows="1" fold="1" page="1" pageScale="1" pageWidth="827" pageHeight="1169" math="0" shadow="0">
      <root>
        <mxCell id="0" />
        <mxCell id="1" parent="0" />
        <mxCell id="a4RUu1PdMvAqzVYMMdYs-1" value="&lt;u&gt;&lt;b&gt;ceos-bdr1&lt;/b&gt;&lt;/u&gt;" style="rounded=0;whiteSpace=wrap;html=1;dashed=1;fillColor=#f5f5f5;strokeColor=#666666;fontColor=#333333;labelPosition=center;verticalLabelPosition=middle;align=center;verticalAlign=top;spacingTop=0;" parent="1" vertex="1">
          <mxGeometry x="200" y="520" width="120" height="120" as="geometry" />
        </mxCell>
        <mxCell id="a4RUu1PdMvAqzVYMMdYs-2" value="" style="verticalAlign=top;verticalLabelPosition=bottom;labelPosition=center;align=center;html=1;outlineConnect=0;fillColor=#0050ef;strokeColor=#001DBC;gradientDirection=north;strokeWidth=2;shape=mxgraph.networks.router;fontColor=#ffffff;" parent="1" vertex="1">
          <mxGeometry x="210" y="565" width="100" height="30" as="geometry" />
        </mxCell>
        <mxCell id="a4RUu1PdMvAqzVYMMdYs-4" value="172.20.0.201" style="text;html=1;align=center;verticalAlign=middle;whiteSpace=wrap;rounded=0;" parent="1" vertex="1">
          <mxGeometry x="200" y="620" width="120" height="20" as="geometry" />
        </mxCell>
        <mxCell id="a4RUu1PdMvAqzVYMMdYs-5" value="&lt;u&gt;&lt;b&gt;ceos-spine1&lt;/b&gt;&lt;/u&gt;" style="rounded=0;whiteSpace=wrap;html=1;dashed=1;fillColor=#f5f5f5;strokeColor=#666666;fontColor=#333333;labelPosition=center;verticalLabelPosition=middle;align=center;verticalAlign=top;spacingTop=0;" parent="1" vertex="1">
          <mxGeometry x="560" y="400" width="120" height="120" as="geometry" />
        </mxCell>
        <mxCell id="a4RUu1PdMvAqzVYMMdYs-7" value="172.20.0.101" style="text;html=1;align=center;verticalAlign=middle;whiteSpace=wrap;rounded=0;" parent="1" vertex="1">
          <mxGeometry x="560" y="500" width="120" height="20" as="geometry" />
        </mxCell>
        <mxCell id="a4RUu1PdMvAqzVYMMdYs-8" value="" style="fontColor=#ffffff;verticalAlign=top;verticalLabelPosition=bottom;labelPosition=center;align=center;html=1;outlineConnect=0;fillColor=#0050ef;strokeColor=#001DBC;gradientDirection=north;strokeWidth=2;shape=mxgraph.networks.switch;" parent="1" vertex="1">
          <mxGeometry x="570" y="445" width="100" height="30" as="geometry" />
        </mxCell>
        <mxCell id="a4RUu1PdMvAqzVYMMdYs-11" value="&lt;u&gt;&lt;b&gt;bird-serv1&lt;/b&gt;&lt;/u&gt;" style="rounded=0;whiteSpace=wrap;html=1;dashed=1;fillColor=#f5f5f5;strokeColor=#666666;fontColor=#333333;labelPosition=center;verticalLabelPosition=middle;align=center;verticalAlign=top;spacingTop=0;" parent="1" vertex="1">
          <mxGeometry x="1281" y="160" width="120" height="120" as="geometry" />
        </mxCell>
        <mxCell id="a4RUu1PdMvAqzVYMMdYs-12" value="172.20.0.121" style="text;html=1;align=center;verticalAlign=middle;whiteSpace=wrap;rounded=0;" parent="1" vertex="1">
          <mxGeometry x="1281" y="260" width="120" height="20" as="geometry" />
        </mxCell>
        <mxCell id="a4RUu1PdMvAqzVYMMdYs-13" value="" style="fontColor=#ffffff;verticalAlign=top;verticalLabelPosition=bottom;labelPosition=center;align=center;html=1;outlineConnect=0;fillColor=#0050ef;strokeColor=#001DBC;gradientDirection=north;strokeWidth=2;shape=mxgraph.networks.desktop_pc;" parent="1" vertex="1">
          <mxGeometry x="1326" y="190" width="30" height="60" as="geometry" />
        </mxCell>
        <mxCell id="a4RUu1PdMvAqzVYMMdYs-14" value="Eth2" style="rounded=1;whiteSpace=wrap;html=1;fillColor=#fff2cc;strokeColor=#d6b656;arcSize=50;" parent="1" vertex="1">
          <mxGeometry x="1241" y="210" width="40" height="20" as="geometry" />
        </mxCell>
        <mxCell id="a4RUu1PdMvAqzVYMMdYs-38" value="&lt;u&gt;&lt;b&gt;ceos-leaf1&lt;/b&gt;&lt;/u&gt;" style="rounded=0;whiteSpace=wrap;html=1;dashed=1;fillColor=#f5f5f5;strokeColor=#666666;fontColor=#333333;labelPosition=center;verticalLabelPosition=middle;align=center;verticalAlign=top;spacingTop=0;" parent="1" vertex="1">
          <mxGeometry x="920" y="160" width="120" height="120" as="geometry" />
        </mxCell>
        <mxCell id="a4RUu1PdMvAqzVYMMdYs-39" value="" style="verticalAlign=top;verticalLabelPosition=bottom;labelPosition=center;align=center;html=1;outlineConnect=0;fillColor=#0050ef;strokeColor=#001DBC;gradientDirection=north;strokeWidth=2;shape=mxgraph.networks.router;fontColor=#ffffff;" parent="1" vertex="1">
          <mxGeometry x="930" y="205" width="100" height="30" as="geometry" />
        </mxCell>
        <mxCell id="a4RUu1PdMvAqzVYMMdYs-41" value="172.20.0.111" style="text;html=1;align=center;verticalAlign=middle;whiteSpace=wrap;rounded=0;" parent="1" vertex="1">
          <mxGeometry x="920" y="260" width="120" height="20" as="geometry" />
        </mxCell>
        <mxCell id="a4RUu1PdMvAqzVYMMdYs-52" value="&lt;u&gt;&lt;b&gt;ubu-host1&lt;/b&gt;&lt;/u&gt;" style="rounded=0;whiteSpace=wrap;html=1;dashed=1;fillColor=#f5f5f5;strokeColor=#666666;fontColor=#333333;labelPosition=center;verticalLabelPosition=middle;align=center;verticalAlign=top;spacingTop=0;" parent="1" vertex="1">
          <mxGeometry x="40" y="800" width="120" height="120" as="geometry" />
        </mxCell>
        <mxCell id="a4RUu1PdMvAqzVYMMdYs-53" value="172.20.0.202" style="text;html=1;align=center;verticalAlign=middle;whiteSpace=wrap;rounded=0;" parent="1" vertex="1">
          <mxGeometry x="40" y="900" width="120" height="20" as="geometry" />
        </mxCell>
        <mxCell id="a4RUu1PdMvAqzVYMMdYs-54" value="" style="fontColor=#ffffff;verticalAlign=top;verticalLabelPosition=bottom;labelPosition=center;align=center;html=1;outlineConnect=0;fillColor=#0050ef;strokeColor=#001DBC;gradientDirection=north;strokeWidth=2;shape=mxgraph.networks.laptop;" parent="1" vertex="1">
          <mxGeometry x="50" y="833" width="100" height="55" as="geometry" />
        </mxCell>
        <mxCell id="a4RUu1PdMvAqzVYMMdYs-55" value="Eth5" style="rounded=1;whiteSpace=wrap;html=1;fillColor=#fff2cc;strokeColor=#d6b656;arcSize=50;" parent="1" vertex="1">
          <mxGeometry x="160" y="570" width="40" height="20" as="geometry" />
        </mxCell>
        <mxCell id="a4RUu1PdMvAqzVYMMdYs-56" value="Eth1" style="rounded=1;whiteSpace=wrap;html=1;fillColor=#fff2cc;strokeColor=#d6b656;arcSize=50;" parent="1" vertex="1">
          <mxGeometry x="80" y="780" width="40" height="20" as="geometry" />
        </mxCell>
        <mxCell id="a4RUu1PdMvAqzVYMMdYs-57" style="rounded=1;orthogonalLoop=1;jettySize=auto;html=1;exitX=0.5;exitY=0;exitDx=0;exitDy=0;entryX=0;entryY=0.5;entryDx=0;entryDy=0;endArrow=oval;endFill=1;startArrow=oval;startFill=1;edgeStyle=orthogonalEdgeStyle;curved=0;" parent="1" source="a4RUu1PdMvAqzVYMMdYs-56" target="a4RUu1PdMvAqzVYMMdYs-55" edge="1">
          <mxGeometry relative="1" as="geometry">
            <mxPoint x="270" y="670" as="sourcePoint" />
            <mxPoint x="530" y="870" as="targetPoint" />
          </mxGeometry>
        </mxCell>
        <mxCell id="a4RUu1PdMvAqzVYMMdYs-58" value="172.16.10.2/24&lt;div&gt;2001:db8:a1::2/48&lt;/div&gt;" style="edgeLabel;html=1;align=center;verticalAlign=middle;resizable=0;points=[];" parent="a4RUu1PdMvAqzVYMMdYs-57" vertex="1" connectable="0">
          <mxGeometry x="-0.1067" y="-3" relative="1" as="geometry">
            <mxPoint x="-3" y="58" as="offset" />
          </mxGeometry>
        </mxCell>
        <mxCell id="a4RUu1PdMvAqzVYMMdYs-59" value="172.16.10.1/24&lt;div&gt;2001:db8:a1::1/48&lt;/div&gt;" style="edgeLabel;html=1;align=center;verticalAlign=middle;resizable=0;points=[];" parent="a4RUu1PdMvAqzVYMMdYs-57" vertex="1" connectable="0">
          <mxGeometry x="0.1691" y="-1" relative="1" as="geometry">
            <mxPoint as="offset" />
          </mxGeometry>
        </mxCell>
        <mxCell id="a4RUu1PdMvAqzVYMMdYs-78" value="Lo0" style="rounded=1;whiteSpace=wrap;html=1;fillColor=#ffe6cc;strokeColor=#d79b00;arcSize=50;" parent="1" vertex="1">
          <mxGeometry x="160" y="520" width="40" height="20" as="geometry" />
        </mxCell>
        <mxCell id="a4RUu1PdMvAqzVYMMdYs-79" style="rounded=0;orthogonalLoop=1;jettySize=auto;html=1;exitX=0;exitY=0.5;exitDx=0;exitDy=0;endArrow=none;endFill=0;startArrow=oval;startFill=1;entryX=0;entryY=0.5;entryDx=0;entryDy=0;" parent="1" source="a4RUu1PdMvAqzVYMMdYs-80" target="a4RUu1PdMvAqzVYMMdYs-78" edge="1">
          <mxGeometry relative="1" as="geometry">
            <mxPoint x="250" y="280" as="sourcePoint" />
            <mxPoint x="160" y="580" as="targetPoint" />
          </mxGeometry>
        </mxCell>
        <mxCell id="a4RUu1PdMvAqzVYMMdYs-80" value="172.16.0.1/32&lt;div&gt;2001:2:f1::1/128&lt;br&gt;&lt;/div&gt;" style="text;html=1;align=right;verticalAlign=middle;whiteSpace=wrap;rounded=0;fillColor=none;labelBackgroundColor=default;fontSize=11;" parent="1" vertex="1">
          <mxGeometry x="40" y="510" width="110" height="40" as="geometry" />
        </mxCell>
        <mxCell id="a4RUu1PdMvAqzVYMMdYs-95" value="&lt;u&gt;&lt;b&gt;ceos-spine2&lt;/b&gt;&lt;/u&gt;" style="rounded=0;whiteSpace=wrap;html=1;dashed=1;fillColor=#f5f5f5;strokeColor=#666666;fontColor=#333333;labelPosition=center;verticalLabelPosition=middle;align=center;verticalAlign=top;spacingTop=0;" parent="1" vertex="1">
          <mxGeometry x="560" y="640" width="120" height="120" as="geometry" />
        </mxCell>
        <mxCell id="a4RUu1PdMvAqzVYMMdYs-96" value="172.20.0.102" style="text;html=1;align=center;verticalAlign=middle;whiteSpace=wrap;rounded=0;" parent="1" vertex="1">
          <mxGeometry x="560" y="740" width="120" height="20" as="geometry" />
        </mxCell>
        <mxCell id="a4RUu1PdMvAqzVYMMdYs-97" value="" style="fontColor=#ffffff;verticalAlign=top;verticalLabelPosition=bottom;labelPosition=center;align=center;html=1;outlineConnect=0;fillColor=#0050ef;strokeColor=#001DBC;gradientDirection=north;strokeWidth=2;shape=mxgraph.networks.switch;" parent="1" vertex="1">
          <mxGeometry x="570" y="685" width="100" height="30" as="geometry" />
        </mxCell>
        <mxCell id="a4RUu1PdMvAqzVYMMdYs-98" value="&lt;u&gt;&lt;b&gt;ceos-leaf2&lt;/b&gt;&lt;/u&gt;" style="rounded=0;whiteSpace=wrap;html=1;dashed=1;fillColor=#f5f5f5;strokeColor=#666666;fontColor=#333333;labelPosition=center;verticalLabelPosition=middle;align=center;verticalAlign=top;spacingTop=0;" parent="1" vertex="1">
          <mxGeometry x="920" y="400" width="120" height="120" as="geometry" />
        </mxCell>
        <mxCell id="a4RUu1PdMvAqzVYMMdYs-99" value="" style="verticalAlign=top;verticalLabelPosition=bottom;labelPosition=center;align=center;html=1;outlineConnect=0;fillColor=#0050ef;strokeColor=#001DBC;gradientDirection=north;strokeWidth=2;shape=mxgraph.networks.router;fontColor=#ffffff;" parent="1" vertex="1">
          <mxGeometry x="930" y="445" width="100" height="30" as="geometry" />
        </mxCell>
        <mxCell id="a4RUu1PdMvAqzVYMMdYs-100" value="172.20.0.112" style="text;html=1;align=center;verticalAlign=middle;whiteSpace=wrap;rounded=0;" parent="1" vertex="1">
          <mxGeometry x="920" y="500" width="120" height="20" as="geometry" />
        </mxCell>
        <mxCell id="a4RUu1PdMvAqzVYMMdYs-101" value="&lt;u&gt;&lt;b&gt;ceos-leaf3&lt;/b&gt;&lt;/u&gt;" style="rounded=0;whiteSpace=wrap;html=1;dashed=1;fillColor=#f5f5f5;strokeColor=#666666;fontColor=#333333;labelPosition=center;verticalLabelPosition=middle;align=center;verticalAlign=top;spacingTop=0;" parent="1" vertex="1">
          <mxGeometry x="920" y="640" width="120" height="120" as="geometry" />
        </mxCell>
        <mxCell id="a4RUu1PdMvAqzVYMMdYs-102" value="" style="verticalAlign=top;verticalLabelPosition=bottom;labelPosition=center;align=center;html=1;outlineConnect=0;fillColor=#0050ef;strokeColor=#001DBC;gradientDirection=north;strokeWidth=2;shape=mxgraph.networks.router;fontColor=#ffffff;" parent="1" vertex="1">
          <mxGeometry x="930" y="685" width="100" height="30" as="geometry" />
        </mxCell>
        <mxCell id="a4RUu1PdMvAqzVYMMdYs-103" value="172.20.0.113" style="text;html=1;align=center;verticalAlign=middle;whiteSpace=wrap;rounded=0;" parent="1" vertex="1">
          <mxGeometry x="920" y="740" width="120" height="20" as="geometry" />
        </mxCell>
        <mxCell id="a4RUu1PdMvAqzVYMMdYs-104" value="&lt;u&gt;&lt;b&gt;ceos-leaf4&lt;/b&gt;&lt;/u&gt;" style="rounded=0;whiteSpace=wrap;html=1;dashed=1;fillColor=#f5f5f5;strokeColor=#666666;fontColor=#333333;labelPosition=center;verticalLabelPosition=middle;align=center;verticalAlign=top;spacingTop=0;" parent="1" vertex="1">
          <mxGeometry x="920" y="880" width="120" height="120" as="geometry" />
        </mxCell>
        <mxCell id="a4RUu1PdMvAqzVYMMdYs-105" value="" style="verticalAlign=top;verticalLabelPosition=bottom;labelPosition=center;align=center;html=1;outlineConnect=0;fillColor=#0050ef;strokeColor=#001DBC;gradientDirection=north;strokeWidth=2;shape=mxgraph.networks.router;fontColor=#ffffff;" parent="1" vertex="1">
          <mxGeometry x="930" y="925" width="100" height="30" as="geometry" />
        </mxCell>
        <mxCell id="a4RUu1PdMvAqzVYMMdYs-106" value="172.20.0.114" style="text;html=1;align=center;verticalAlign=middle;whiteSpace=wrap;rounded=0;" parent="1" vertex="1">
          <mxGeometry x="920" y="980" width="120" height="20" as="geometry" />
        </mxCell>
        <mxCell id="a4RUu1PdMvAqzVYMMdYs-107" value="Eth5" style="rounded=1;whiteSpace=wrap;html=1;fillColor=#fff2cc;strokeColor=#d6b656;arcSize=50;" parent="1" vertex="1">
          <mxGeometry x="1040" y="210" width="40" height="20" as="geometry" />
        </mxCell>
        <mxCell id="a4RUu1PdMvAqzVYMMdYs-115" style="rounded=0;orthogonalLoop=1;jettySize=auto;html=1;exitX=0;exitY=0.5;exitDx=0;exitDy=0;entryX=1;entryY=0.5;entryDx=0;entryDy=0;endArrow=oval;endFill=1;startArrow=oval;startFill=1;" parent="1" source="a4RUu1PdMvAqzVYMMdYs-14" target="a4RUu1PdMvAqzVYMMdYs-107" edge="1">
          <mxGeometry relative="1" as="geometry">
            <mxPoint x="1241" y="269.5" as="sourcePoint" />
            <mxPoint x="1080" y="269.5" as="targetPoint" />
          </mxGeometry>
        </mxCell>
        <mxCell id="a4RUu1PdMvAqzVYMMdYs-116" value="10.254.1.0/24" style="edgeLabel;html=1;align=center;verticalAlign=middle;resizable=0;points=[];" parent="a4RUu1PdMvAqzVYMMdYs-115" vertex="1" connectable="0">
          <mxGeometry x="-0.0576" y="1" relative="1" as="geometry">
            <mxPoint x="-5" y="-1" as="offset" />
          </mxGeometry>
        </mxCell>
        <mxCell id="a4RUu1PdMvAqzVYMMdYs-119" value="&lt;u&gt;&lt;b&gt;bird-serv2&lt;/b&gt;&lt;/u&gt;" style="rounded=0;whiteSpace=wrap;html=1;dashed=1;fillColor=#f5f5f5;strokeColor=#666666;fontColor=#333333;labelPosition=center;verticalLabelPosition=middle;align=center;verticalAlign=top;spacingTop=0;" parent="1" vertex="1">
          <mxGeometry x="1281" y="400" width="120" height="120" as="geometry" />
        </mxCell>
        <mxCell id="a4RUu1PdMvAqzVYMMdYs-120" value="172.20.0.122" style="text;html=1;align=center;verticalAlign=middle;whiteSpace=wrap;rounded=0;" parent="1" vertex="1">
          <mxGeometry x="1281" y="500" width="120" height="20" as="geometry" />
        </mxCell>
        <mxCell id="a4RUu1PdMvAqzVYMMdYs-121" value="" style="fontColor=#ffffff;verticalAlign=top;verticalLabelPosition=bottom;labelPosition=center;align=center;html=1;outlineConnect=0;fillColor=#0050ef;strokeColor=#001DBC;gradientDirection=north;strokeWidth=2;shape=mxgraph.networks.desktop_pc;" parent="1" vertex="1">
          <mxGeometry x="1326" y="430" width="30" height="60" as="geometry" />
        </mxCell>
        <mxCell id="a4RUu1PdMvAqzVYMMdYs-122" value="Eth2" style="rounded=1;whiteSpace=wrap;html=1;fillColor=#fff2cc;strokeColor=#d6b656;arcSize=50;" parent="1" vertex="1">
          <mxGeometry x="1241" y="450" width="40" height="20" as="geometry" />
        </mxCell>
        <mxCell id="a4RUu1PdMvAqzVYMMdYs-123" value="Eth5" style="rounded=1;whiteSpace=wrap;html=1;fillColor=#fff2cc;strokeColor=#d6b656;arcSize=50;" parent="1" vertex="1">
          <mxGeometry x="1040" y="450" width="40" height="20" as="geometry" />
        </mxCell>
        <mxCell id="a4RUu1PdMvAqzVYMMdYs-124" style="rounded=0;orthogonalLoop=1;jettySize=auto;html=1;exitX=0;exitY=0.5;exitDx=0;exitDy=0;entryX=1;entryY=0.5;entryDx=0;entryDy=0;endArrow=oval;endFill=1;startArrow=oval;startFill=1;" parent="1" source="a4RUu1PdMvAqzVYMMdYs-122" target="a4RUu1PdMvAqzVYMMdYs-123" edge="1">
          <mxGeometry relative="1" as="geometry">
            <mxPoint x="1241" y="509.5" as="sourcePoint" />
            <mxPoint x="1080" y="509.5" as="targetPoint" />
          </mxGeometry>
        </mxCell>
        <mxCell id="a4RUu1PdMvAqzVYMMdYs-125" value="10.254.2.0/24" style="edgeLabel;html=1;align=center;verticalAlign=middle;resizable=0;points=[];" parent="a4RUu1PdMvAqzVYMMdYs-124" vertex="1" connectable="0">
          <mxGeometry x="-0.0576" y="1" relative="1" as="geometry">
            <mxPoint x="-5" y="-1" as="offset" />
          </mxGeometry>
        </mxCell>
        <mxCell id="a4RUu1PdMvAqzVYMMdYs-126" value="&lt;u&gt;&lt;b&gt;bird-serv3&lt;/b&gt;&lt;/u&gt;" style="rounded=0;whiteSpace=wrap;html=1;dashed=1;fillColor=#f5f5f5;strokeColor=#666666;fontColor=#333333;labelPosition=center;verticalLabelPosition=middle;align=center;verticalAlign=top;spacingTop=0;" parent="1" vertex="1">
          <mxGeometry x="1281" y="640" width="120" height="120" as="geometry" />
        </mxCell>
        <mxCell id="a4RUu1PdMvAqzVYMMdYs-127" value="172.20.0.123" style="text;html=1;align=center;verticalAlign=middle;whiteSpace=wrap;rounded=0;" parent="1" vertex="1">
          <mxGeometry x="1281" y="740" width="120" height="20" as="geometry" />
        </mxCell>
        <mxCell id="a4RUu1PdMvAqzVYMMdYs-128" value="" style="fontColor=#ffffff;verticalAlign=top;verticalLabelPosition=bottom;labelPosition=center;align=center;html=1;outlineConnect=0;fillColor=#0050ef;strokeColor=#001DBC;gradientDirection=north;strokeWidth=2;shape=mxgraph.networks.desktop_pc;" parent="1" vertex="1">
          <mxGeometry x="1326" y="670" width="30" height="60" as="geometry" />
        </mxCell>
        <mxCell id="a4RUu1PdMvAqzVYMMdYs-129" value="Eth2" style="rounded=1;whiteSpace=wrap;html=1;fillColor=#fff2cc;strokeColor=#d6b656;arcSize=50;" parent="1" vertex="1">
          <mxGeometry x="1241" y="690" width="40" height="20" as="geometry" />
        </mxCell>
        <mxCell id="a4RUu1PdMvAqzVYMMdYs-130" value="Eth5" style="rounded=1;whiteSpace=wrap;html=1;fillColor=#fff2cc;strokeColor=#d6b656;arcSize=50;" parent="1" vertex="1">
          <mxGeometry x="1040" y="690" width="40" height="20" as="geometry" />
        </mxCell>
        <mxCell id="a4RUu1PdMvAqzVYMMdYs-131" style="rounded=0;orthogonalLoop=1;jettySize=auto;html=1;exitX=0;exitY=0.5;exitDx=0;exitDy=0;entryX=1;entryY=0.5;entryDx=0;entryDy=0;endArrow=oval;endFill=1;startArrow=oval;startFill=1;" parent="1" source="a4RUu1PdMvAqzVYMMdYs-129" target="a4RUu1PdMvAqzVYMMdYs-130" edge="1">
          <mxGeometry relative="1" as="geometry">
            <mxPoint x="1241" y="749.5" as="sourcePoint" />
            <mxPoint x="1080" y="749.5" as="targetPoint" />
          </mxGeometry>
        </mxCell>
        <mxCell id="a4RUu1PdMvAqzVYMMdYs-132" value="10.254.3.0/24" style="edgeLabel;html=1;align=center;verticalAlign=middle;resizable=0;points=[];" parent="a4RUu1PdMvAqzVYMMdYs-131" vertex="1" connectable="0">
          <mxGeometry x="-0.0576" y="1" relative="1" as="geometry">
            <mxPoint x="-5" y="-1" as="offset" />
          </mxGeometry>
        </mxCell>
        <mxCell id="a4RUu1PdMvAqzVYMMdYs-133" value="&lt;u&gt;&lt;b&gt;bird-serv4&lt;/b&gt;&lt;/u&gt;" style="rounded=0;whiteSpace=wrap;html=1;dashed=1;fillColor=#f5f5f5;strokeColor=#666666;fontColor=#333333;labelPosition=center;verticalLabelPosition=middle;align=center;verticalAlign=top;spacingTop=0;" parent="1" vertex="1">
          <mxGeometry x="1281" y="880" width="120" height="120" as="geometry" />
        </mxCell>
        <mxCell id="a4RUu1PdMvAqzVYMMdYs-134" value="172.20.0.124" style="text;html=1;align=center;verticalAlign=middle;whiteSpace=wrap;rounded=0;" parent="1" vertex="1">
          <mxGeometry x="1281" y="980" width="120" height="20" as="geometry" />
        </mxCell>
        <mxCell id="a4RUu1PdMvAqzVYMMdYs-135" value="" style="fontColor=#ffffff;verticalAlign=top;verticalLabelPosition=bottom;labelPosition=center;align=center;html=1;outlineConnect=0;fillColor=#0050ef;strokeColor=#001DBC;gradientDirection=north;strokeWidth=2;shape=mxgraph.networks.desktop_pc;" parent="1" vertex="1">
          <mxGeometry x="1326" y="910" width="30" height="60" as="geometry" />
        </mxCell>
        <mxCell id="a4RUu1PdMvAqzVYMMdYs-136" value="Eth2" style="rounded=1;whiteSpace=wrap;html=1;fillColor=#fff2cc;strokeColor=#d6b656;arcSize=50;" parent="1" vertex="1">
          <mxGeometry x="1241" y="930" width="40" height="20" as="geometry" />
        </mxCell>
        <mxCell id="a4RUu1PdMvAqzVYMMdYs-137" value="Eth5" style="rounded=1;whiteSpace=wrap;html=1;fillColor=#fff2cc;strokeColor=#d6b656;arcSize=50;" parent="1" vertex="1">
          <mxGeometry x="1040" y="930" width="40" height="20" as="geometry" />
        </mxCell>
        <mxCell id="a4RUu1PdMvAqzVYMMdYs-138" style="rounded=0;orthogonalLoop=1;jettySize=auto;html=1;exitX=0;exitY=0.5;exitDx=0;exitDy=0;entryX=1;entryY=0.5;entryDx=0;entryDy=0;endArrow=oval;endFill=1;startArrow=oval;startFill=1;" parent="1" source="a4RUu1PdMvAqzVYMMdYs-136" target="a4RUu1PdMvAqzVYMMdYs-137" edge="1">
          <mxGeometry relative="1" as="geometry">
            <mxPoint x="1241" y="989.5" as="sourcePoint" />
            <mxPoint x="1080" y="989.5" as="targetPoint" />
          </mxGeometry>
        </mxCell>
        <mxCell id="a4RUu1PdMvAqzVYMMdYs-139" value="10.254.4.0/24" style="edgeLabel;html=1;align=center;verticalAlign=middle;resizable=0;points=[];" parent="a4RUu1PdMvAqzVYMMdYs-138" vertex="1" connectable="0">
          <mxGeometry x="-0.0576" y="1" relative="1" as="geometry">
            <mxPoint x="-5" y="-1" as="offset" />
          </mxGeometry>
        </mxCell>
        <mxCell id="a4RUu1PdMvAqzVYMMdYs-140" value="Eth1" style="rounded=1;whiteSpace=wrap;html=1;fillColor=#fff2cc;strokeColor=#d6b656;arcSize=50;" parent="1" vertex="1">
          <mxGeometry x="880" y="180" width="40" height="20" as="geometry" />
        </mxCell>
        <mxCell id="a4RUu1PdMvAqzVYMMdYs-141" value="Eth1" style="rounded=1;whiteSpace=wrap;html=1;fillColor=#fff2cc;strokeColor=#d6b656;arcSize=50;" parent="1" vertex="1">
          <mxGeometry x="679" y="400" width="40" height="20" as="geometry" />
        </mxCell>
        <mxCell id="a4RUu1PdMvAqzVYMMdYs-142" style="rounded=0;orthogonalLoop=1;jettySize=auto;html=1;exitX=0;exitY=0.5;exitDx=0;exitDy=0;entryX=1;entryY=0.5;entryDx=0;entryDy=0;endArrow=oval;endFill=1;startArrow=oval;startFill=1;" parent="1" source="a4RUu1PdMvAqzVYMMdYs-140" target="a4RUu1PdMvAqzVYMMdYs-141" edge="1">
          <mxGeometry relative="1" as="geometry">
            <mxPoint x="880" y="459.5" as="sourcePoint" />
            <mxPoint x="719" y="459.5" as="targetPoint" />
          </mxGeometry>
        </mxCell>
        <mxCell id="a4RUu1PdMvAqzVYMMdYs-143" value="IPv6 LLA" style="edgeLabel;html=1;align=center;verticalAlign=middle;resizable=0;points=[];" parent="a4RUu1PdMvAqzVYMMdYs-142" vertex="1" connectable="0">
          <mxGeometry x="-0.0576" y="1" relative="1" as="geometry">
            <mxPoint x="-5" y="-1" as="offset" />
          </mxGeometry>
        </mxCell>
        <mxCell id="a4RUu1PdMvAqzVYMMdYs-144" value="Eth1" style="rounded=1;whiteSpace=wrap;html=1;fillColor=#fff2cc;strokeColor=#d6b656;arcSize=50;" parent="1" vertex="1">
          <mxGeometry x="881" y="420" width="40" height="20" as="geometry" />
        </mxCell>
        <mxCell id="a4RUu1PdMvAqzVYMMdYs-145" value="Eth2" style="rounded=1;whiteSpace=wrap;html=1;fillColor=#fff2cc;strokeColor=#d6b656;arcSize=50;" parent="1" vertex="1">
          <mxGeometry x="679" y="420" width="40" height="20" as="geometry" />
        </mxCell>
        <mxCell id="a4RUu1PdMvAqzVYMMdYs-148" value="Eth1" style="rounded=1;whiteSpace=wrap;html=1;fillColor=#fff2cc;strokeColor=#d6b656;arcSize=50;" parent="1" vertex="1">
          <mxGeometry x="880" y="660" width="40" height="20" as="geometry" />
        </mxCell>
        <mxCell id="a4RUu1PdMvAqzVYMMdYs-149" value="Eth3" style="rounded=1;whiteSpace=wrap;html=1;fillColor=#fff2cc;strokeColor=#d6b656;arcSize=50;" parent="1" vertex="1">
          <mxGeometry x="680" y="480" width="40" height="20" as="geometry" />
        </mxCell>
        <mxCell id="a4RUu1PdMvAqzVYMMdYs-150" style="rounded=0;orthogonalLoop=1;jettySize=auto;html=1;exitX=0;exitY=0.5;exitDx=0;exitDy=0;entryX=1;entryY=0.5;entryDx=0;entryDy=0;endArrow=oval;endFill=1;startArrow=oval;startFill=1;" parent="1" source="a4RUu1PdMvAqzVYMMdYs-148" target="a4RUu1PdMvAqzVYMMdYs-149" edge="1">
          <mxGeometry relative="1" as="geometry">
            <mxPoint x="881" y="539.5" as="sourcePoint" />
            <mxPoint x="720" y="539.5" as="targetPoint" />
          </mxGeometry>
        </mxCell>
        <mxCell id="a4RUu1PdMvAqzVYMMdYs-152" value="Eth1" style="rounded=1;whiteSpace=wrap;html=1;fillColor=#fff2cc;strokeColor=#d6b656;arcSize=50;" parent="1" vertex="1">
          <mxGeometry x="881" y="900" width="40" height="20" as="geometry" />
        </mxCell>
        <mxCell id="a4RUu1PdMvAqzVYMMdYs-153" value="Eth4" style="rounded=1;whiteSpace=wrap;html=1;fillColor=#fff2cc;strokeColor=#d6b656;arcSize=50;" parent="1" vertex="1">
          <mxGeometry x="680" y="500" width="40" height="20" as="geometry" />
        </mxCell>
        <mxCell id="a4RUu1PdMvAqzVYMMdYs-154" style="rounded=0;orthogonalLoop=1;jettySize=auto;html=1;exitX=0;exitY=0.5;exitDx=0;exitDy=0;entryX=1;entryY=0.5;entryDx=0;entryDy=0;endArrow=oval;endFill=1;startArrow=oval;startFill=1;" parent="1" source="a4RUu1PdMvAqzVYMMdYs-152" target="a4RUu1PdMvAqzVYMMdYs-153" edge="1">
          <mxGeometry relative="1" as="geometry">
            <mxPoint x="881" y="559.5" as="sourcePoint" />
            <mxPoint x="720" y="559.5" as="targetPoint" />
          </mxGeometry>
        </mxCell>
        <mxCell id="a4RUu1PdMvAqzVYMMdYs-155" value="IPv6 LLA" style="edgeLabel;html=1;align=center;verticalAlign=middle;resizable=0;points=[];" parent="a4RUu1PdMvAqzVYMMdYs-154" vertex="1" connectable="0">
          <mxGeometry x="-0.0576" y="1" relative="1" as="geometry">
            <mxPoint x="-5" y="-22" as="offset" />
          </mxGeometry>
        </mxCell>
        <mxCell id="a4RUu1PdMvAqzVYMMdYs-173" value="Eth2" style="rounded=1;whiteSpace=wrap;html=1;fillColor=#fff2cc;strokeColor=#d6b656;arcSize=50;" parent="1" vertex="1">
          <mxGeometry x="880" y="240" width="40" height="20" as="geometry" />
        </mxCell>
        <mxCell id="a4RUu1PdMvAqzVYMMdYs-174" value="Eth1" style="rounded=1;whiteSpace=wrap;html=1;fillColor=#fff2cc;strokeColor=#d6b656;arcSize=50;" parent="1" vertex="1">
          <mxGeometry x="680" y="640" width="40" height="20" as="geometry" />
        </mxCell>
        <mxCell id="a4RUu1PdMvAqzVYMMdYs-175" style="rounded=0;orthogonalLoop=1;jettySize=auto;html=1;exitX=0;exitY=0.5;exitDx=0;exitDy=0;entryX=1;entryY=0.5;entryDx=0;entryDy=0;endArrow=oval;endFill=1;startArrow=oval;startFill=1;" parent="1" source="a4RUu1PdMvAqzVYMMdYs-173" target="a4RUu1PdMvAqzVYMMdYs-174" edge="1">
          <mxGeometry relative="1" as="geometry">
            <mxPoint x="881" y="699.5" as="sourcePoint" />
            <mxPoint x="720" y="699.5" as="targetPoint" />
          </mxGeometry>
        </mxCell>
        <mxCell id="a4RUu1PdMvAqzVYMMdYs-176" value="IPv6 LLA" style="edgeLabel;html=1;align=center;verticalAlign=middle;resizable=0;points=[];" parent="a4RUu1PdMvAqzVYMMdYs-175" vertex="1" connectable="0">
          <mxGeometry x="-0.0576" y="1" relative="1" as="geometry">
            <mxPoint x="-16" y="21" as="offset" />
          </mxGeometry>
        </mxCell>
        <mxCell id="a4RUu1PdMvAqzVYMMdYs-177" value="Eth2" style="rounded=1;whiteSpace=wrap;html=1;fillColor=#fff2cc;strokeColor=#d6b656;arcSize=50;" parent="1" vertex="1">
          <mxGeometry x="880" y="480" width="40" height="20" as="geometry" />
        </mxCell>
        <mxCell id="a4RUu1PdMvAqzVYMMdYs-178" value="Eth2" style="rounded=1;whiteSpace=wrap;html=1;fillColor=#fff2cc;strokeColor=#d6b656;arcSize=50;" parent="1" vertex="1">
          <mxGeometry x="680" y="660" width="40" height="20" as="geometry" />
        </mxCell>
        <mxCell id="a4RUu1PdMvAqzVYMMdYs-179" style="rounded=0;orthogonalLoop=1;jettySize=auto;html=1;exitX=0;exitY=0.5;exitDx=0;exitDy=0;entryX=1;entryY=0.5;entryDx=0;entryDy=0;endArrow=oval;endFill=1;startArrow=oval;startFill=1;" parent="1" source="a4RUu1PdMvAqzVYMMdYs-177" target="a4RUu1PdMvAqzVYMMdYs-178" edge="1">
          <mxGeometry relative="1" as="geometry">
            <mxPoint x="881" y="719.5" as="sourcePoint" />
            <mxPoint x="720" y="719.5" as="targetPoint" />
          </mxGeometry>
        </mxCell>
        <mxCell id="a4RUu1PdMvAqzVYMMdYs-180" value="IPv6 LLA" style="edgeLabel;html=1;align=center;verticalAlign=middle;resizable=0;points=[];" parent="a4RUu1PdMvAqzVYMMdYs-179" vertex="1" connectable="0">
          <mxGeometry x="-0.0576" y="1" relative="1" as="geometry">
            <mxPoint x="-5" y="5" as="offset" />
          </mxGeometry>
        </mxCell>
        <mxCell id="a4RUu1PdMvAqzVYMMdYs-181" value="Eth2" style="rounded=1;whiteSpace=wrap;html=1;fillColor=#fff2cc;strokeColor=#d6b656;arcSize=50;" parent="1" vertex="1">
          <mxGeometry x="882" y="720" width="40" height="20" as="geometry" />
        </mxCell>
        <mxCell id="a4RUu1PdMvAqzVYMMdYs-182" value="Eth3" style="rounded=1;whiteSpace=wrap;html=1;fillColor=#fff2cc;strokeColor=#d6b656;arcSize=50;" parent="1" vertex="1">
          <mxGeometry x="681" y="720" width="40" height="20" as="geometry" />
        </mxCell>
        <mxCell id="a4RUu1PdMvAqzVYMMdYs-183" style="rounded=0;orthogonalLoop=1;jettySize=auto;html=1;exitX=0;exitY=0.5;exitDx=0;exitDy=0;entryX=1;entryY=0.5;entryDx=0;entryDy=0;endArrow=oval;endFill=1;startArrow=oval;startFill=1;" parent="1" source="a4RUu1PdMvAqzVYMMdYs-181" target="a4RUu1PdMvAqzVYMMdYs-182" edge="1">
          <mxGeometry relative="1" as="geometry">
            <mxPoint x="882" y="779.5" as="sourcePoint" />
            <mxPoint x="721" y="779.5" as="targetPoint" />
          </mxGeometry>
        </mxCell>
        <mxCell id="a4RUu1PdMvAqzVYMMdYs-184" value="IPv6 LLA" style="edgeLabel;html=1;align=center;verticalAlign=middle;resizable=0;points=[];" parent="a4RUu1PdMvAqzVYMMdYs-183" vertex="1" connectable="0">
          <mxGeometry x="-0.0576" y="1" relative="1" as="geometry">
            <mxPoint x="-5" y="-1" as="offset" />
          </mxGeometry>
        </mxCell>
        <mxCell id="a4RUu1PdMvAqzVYMMdYs-185" value="Eth2" style="rounded=1;whiteSpace=wrap;html=1;fillColor=#fff2cc;strokeColor=#d6b656;arcSize=50;" parent="1" vertex="1">
          <mxGeometry x="880" y="960" width="40" height="20" as="geometry" />
        </mxCell>
        <mxCell id="a4RUu1PdMvAqzVYMMdYs-186" value="Eth4" style="rounded=1;whiteSpace=wrap;html=1;fillColor=#fff2cc;strokeColor=#d6b656;arcSize=50;" parent="1" vertex="1">
          <mxGeometry x="681" y="740" width="40" height="20" as="geometry" />
        </mxCell>
        <mxCell id="a4RUu1PdMvAqzVYMMdYs-187" value="IPv6 LLA" style="rounded=0;orthogonalLoop=1;jettySize=auto;html=1;exitX=0;exitY=0.5;exitDx=0;exitDy=0;entryX=1;entryY=0.5;entryDx=0;entryDy=0;endArrow=oval;endFill=1;startArrow=oval;startFill=1;" parent="1" source="a4RUu1PdMvAqzVYMMdYs-185" target="a4RUu1PdMvAqzVYMMdYs-186" edge="1">
          <mxGeometry relative="1" as="geometry">
            <mxPoint x="882" y="799.5" as="sourcePoint" />
            <mxPoint x="721" y="799.5" as="targetPoint" />
          </mxGeometry>
        </mxCell>
        <mxCell id="a4RUu1PdMvAqzVYMMdYs-189" value="Eth5" style="rounded=1;whiteSpace=wrap;html=1;fillColor=#fff2cc;strokeColor=#d6b656;arcSize=50;" parent="1" vertex="1">
          <mxGeometry x="520" y="450" width="40" height="20" as="geometry" />
        </mxCell>
        <mxCell id="a4RUu1PdMvAqzVYMMdYs-190" value="Eth5" style="rounded=1;whiteSpace=wrap;html=1;fillColor=#fff2cc;strokeColor=#d6b656;arcSize=50;" parent="1" vertex="1">
          <mxGeometry x="520" y="690" width="40" height="20" as="geometry" />
        </mxCell>
        <mxCell id="a4RUu1PdMvAqzVYMMdYs-191" value="Eth1" style="rounded=1;whiteSpace=wrap;html=1;fillColor=#fff2cc;strokeColor=#d6b656;arcSize=50;" parent="1" vertex="1">
          <mxGeometry x="320" y="540" width="40" height="20" as="geometry" />
        </mxCell>
        <mxCell id="a4RUu1PdMvAqzVYMMdYs-192" value="Eth2" style="rounded=1;whiteSpace=wrap;html=1;fillColor=#fff2cc;strokeColor=#d6b656;arcSize=50;" parent="1" vertex="1">
          <mxGeometry x="320" y="600" width="40" height="20" as="geometry" />
        </mxCell>
        <mxCell id="a4RUu1PdMvAqzVYMMdYs-193" style="rounded=0;orthogonalLoop=1;jettySize=auto;html=1;exitX=0;exitY=0.5;exitDx=0;exitDy=0;entryX=1;entryY=0.5;entryDx=0;entryDy=0;endArrow=oval;endFill=1;startArrow=oval;startFill=1;" parent="1" source="a4RUu1PdMvAqzVYMMdYs-189" target="a4RUu1PdMvAqzVYMMdYs-191" edge="1">
          <mxGeometry relative="1" as="geometry">
            <mxPoint x="520" y="510" as="sourcePoint" />
            <mxPoint x="360" y="695" as="targetPoint" />
          </mxGeometry>
        </mxCell>
        <mxCell id="a4RUu1PdMvAqzVYMMdYs-194" value="10.255.0.2/31" style="edgeLabel;html=1;align=center;verticalAlign=middle;resizable=0;points=[];" parent="a4RUu1PdMvAqzVYMMdYs-193" vertex="1" connectable="0">
          <mxGeometry x="-0.0576" y="1" relative="1" as="geometry">
            <mxPoint x="-5" y="-1" as="offset" />
          </mxGeometry>
        </mxCell>
        <mxCell id="a4RUu1PdMvAqzVYMMdYs-195" style="rounded=0;orthogonalLoop=1;jettySize=auto;html=1;exitX=0;exitY=0.5;exitDx=0;exitDy=0;entryX=1;entryY=0.5;entryDx=0;entryDy=0;endArrow=oval;endFill=1;startArrow=oval;startFill=1;" parent="1" source="a4RUu1PdMvAqzVYMMdYs-190" target="a4RUu1PdMvAqzVYMMdYs-192" edge="1">
          <mxGeometry relative="1" as="geometry">
            <mxPoint x="530" y="470" as="sourcePoint" />
            <mxPoint x="370" y="560" as="targetPoint" />
          </mxGeometry>
        </mxCell>
        <mxCell id="a4RUu1PdMvAqzVYMMdYs-196" value="10.255.0.4/31" style="edgeLabel;html=1;align=center;verticalAlign=middle;resizable=0;points=[];" parent="a4RUu1PdMvAqzVYMMdYs-195" vertex="1" connectable="0">
          <mxGeometry x="-0.0576" y="1" relative="1" as="geometry">
            <mxPoint x="-5" y="-1" as="offset" />
          </mxGeometry>
        </mxCell>
        <mxCell id="a4RUu1PdMvAqzVYMMdYs-197" value="Lo0" style="rounded=1;whiteSpace=wrap;html=1;fillColor=#ffe6cc;strokeColor=#d79b00;arcSize=50;" parent="1" vertex="1">
          <mxGeometry x="520" y="400" width="40" height="20" as="geometry" />
        </mxCell>
        <mxCell id="a4RUu1PdMvAqzVYMMdYs-198" value="10.0.0.101/32&lt;div&gt;&lt;span style=&quot;text-align: right; text-wrap: wrap;&quot;&gt;2001:2:a1::1/128&lt;/span&gt;&lt;br&gt;&lt;/div&gt;" style="rounded=0;orthogonalLoop=1;jettySize=auto;html=1;endArrow=none;endFill=0;startArrow=oval;startFill=1;entryX=0;entryY=0.5;entryDx=0;entryDy=0;" parent="1" target="a4RUu1PdMvAqzVYMMdYs-197" edge="1">
          <mxGeometry relative="1" as="geometry">
            <mxPoint x="400" y="410" as="sourcePoint" />
            <mxPoint x="520" y="460" as="targetPoint" />
          </mxGeometry>
        </mxCell>
        <mxCell id="a4RUu1PdMvAqzVYMMdYs-199" value="Lo0" style="rounded=1;whiteSpace=wrap;html=1;fillColor=#ffe6cc;strokeColor=#d79b00;arcSize=50;" parent="1" vertex="1">
          <mxGeometry x="520" y="740" width="40" height="20" as="geometry" />
        </mxCell>
        <mxCell id="a4RUu1PdMvAqzVYMMdYs-200" value="10.0.0.102/32&lt;div&gt;&lt;span style=&quot;text-align: right; text-wrap: wrap;&quot;&gt;2001:2:a2::1/128&lt;/span&gt;&lt;br&gt;&lt;/div&gt;" style="rounded=0;orthogonalLoop=1;jettySize=auto;html=1;endArrow=none;endFill=0;startArrow=oval;startFill=1;entryX=0;entryY=0.5;entryDx=0;entryDy=0;" parent="1" target="a4RUu1PdMvAqzVYMMdYs-199" edge="1">
          <mxGeometry relative="1" as="geometry">
            <mxPoint x="400" y="750" as="sourcePoint" />
            <mxPoint x="520" y="800" as="targetPoint" />
          </mxGeometry>
        </mxCell>
        <mxCell id="a4RUu1PdMvAqzVYMMdYs-201" value="Lo0" style="rounded=1;whiteSpace=wrap;html=1;fillColor=#ffe6cc;strokeColor=#d79b00;arcSize=50;" parent="1" vertex="1">
          <mxGeometry x="1040" y="160" width="40" height="20" as="geometry" />
        </mxCell>
        <mxCell id="a4RUu1PdMvAqzVYMMdYs-202" value="10.0.0.111/32&lt;div&gt;&lt;span style=&quot;text-align: right; text-wrap: wrap;&quot;&gt;2001:2:b1::1/128&lt;/span&gt;&lt;br&gt;&lt;/div&gt;" style="rounded=0;orthogonalLoop=1;jettySize=auto;html=1;endArrow=none;endFill=0;startArrow=oval;startFill=1;entryX=1;entryY=0.5;entryDx=0;entryDy=0;" parent="1" target="a4RUu1PdMvAqzVYMMdYs-201" edge="1">
          <mxGeometry relative="1" as="geometry">
            <mxPoint x="1198" y="170" as="sourcePoint" />
            <mxPoint x="1040" y="220" as="targetPoint" />
          </mxGeometry>
        </mxCell>
        <mxCell id="a4RUu1PdMvAqzVYMMdYs-203" value="Lo0" style="rounded=1;whiteSpace=wrap;html=1;fillColor=#ffe6cc;strokeColor=#d79b00;arcSize=50;" parent="1" vertex="1">
          <mxGeometry x="1040" y="400" width="40" height="20" as="geometry" />
        </mxCell>
        <mxCell id="a4RUu1PdMvAqzVYMMdYs-204" value="10.0.0.112/32&lt;div&gt;&lt;span style=&quot;text-align: right; text-wrap: wrap;&quot;&gt;2001:2:b2::1/128&lt;/span&gt;&lt;br&gt;&lt;/div&gt;" style="rounded=0;orthogonalLoop=1;jettySize=auto;html=1;endArrow=none;endFill=0;startArrow=oval;startFill=1;entryX=1;entryY=0.5;entryDx=0;entryDy=0;" parent="1" target="a4RUu1PdMvAqzVYMMdYs-203" edge="1">
          <mxGeometry relative="1" as="geometry">
            <mxPoint x="1198" y="410" as="sourcePoint" />
            <mxPoint x="1040" y="460" as="targetPoint" />
          </mxGeometry>
        </mxCell>
        <mxCell id="a4RUu1PdMvAqzVYMMdYs-205" value="Lo0" style="rounded=1;whiteSpace=wrap;html=1;fillColor=#ffe6cc;strokeColor=#d79b00;arcSize=50;" parent="1" vertex="1">
          <mxGeometry x="1040" y="740" width="40" height="20" as="geometry" />
        </mxCell>
        <mxCell id="a4RUu1PdMvAqzVYMMdYs-206" value="10.0.0.113/32&lt;div&gt;&lt;span style=&quot;text-align: right; text-wrap: wrap;&quot;&gt;2001:2:b3::1/128&lt;/span&gt;&lt;br&gt;&lt;/div&gt;" style="rounded=0;orthogonalLoop=1;jettySize=auto;html=1;endArrow=none;endFill=0;startArrow=oval;startFill=1;entryX=1;entryY=0.5;entryDx=0;entryDy=0;" parent="1" target="a4RUu1PdMvAqzVYMMdYs-205" edge="1">
          <mxGeometry relative="1" as="geometry">
            <mxPoint x="1198" y="750" as="sourcePoint" />
            <mxPoint x="1040" y="800" as="targetPoint" />
          </mxGeometry>
        </mxCell>
        <mxCell id="a4RUu1PdMvAqzVYMMdYs-207" value="Lo0" style="rounded=1;whiteSpace=wrap;html=1;fillColor=#ffe6cc;strokeColor=#d79b00;arcSize=50;" parent="1" vertex="1">
          <mxGeometry x="1040" y="980" width="40" height="20" as="geometry" />
        </mxCell>
        <mxCell id="a4RUu1PdMvAqzVYMMdYs-208" value="10.0.0.114/32&lt;div&gt;&lt;span style=&quot;text-align: right; text-wrap: wrap;&quot;&gt;2001:2:b4::1/128&lt;/span&gt;&lt;br&gt;&lt;/div&gt;" style="rounded=0;orthogonalLoop=1;jettySize=auto;html=1;endArrow=none;endFill=0;startArrow=oval;startFill=1;entryX=1;entryY=0.5;entryDx=0;entryDy=0;" parent="1" target="a4RUu1PdMvAqzVYMMdYs-207" edge="1">
          <mxGeometry relative="1" as="geometry">
            <mxPoint x="1198" y="990" as="sourcePoint" />
            <mxPoint x="1040" y="1040" as="targetPoint" />
          </mxGeometry>
        </mxCell>
        <mxCell id="a4RUu1PdMvAqzVYMMdYs-146" style="rounded=0;orthogonalLoop=1;jettySize=auto;html=1;exitX=0;exitY=0.5;exitDx=0;exitDy=0;entryX=1;entryY=0.5;entryDx=0;entryDy=0;endArrow=oval;endFill=1;startArrow=oval;startFill=1;" parent="1" source="a4RUu1PdMvAqzVYMMdYs-144" target="a4RUu1PdMvAqzVYMMdYs-145" edge="1">
          <mxGeometry relative="1" as="geometry">
            <mxPoint x="880" y="479.5" as="sourcePoint" />
            <mxPoint x="719" y="479.5" as="targetPoint" />
          </mxGeometry>
        </mxCell>
        <mxCell id="a4RUu1PdMvAqzVYMMdYs-147" value="IPv6 LLA" style="edgeLabel;html=1;align=center;verticalAlign=middle;resizable=0;points=[];" parent="a4RUu1PdMvAqzVYMMdYs-146" vertex="1" connectable="0">
          <mxGeometry x="-0.0576" y="1" relative="1" as="geometry">
            <mxPoint x="-5" y="-1" as="offset" />
          </mxGeometry>
        </mxCell>
        <mxCell id="yU12biAtWJXvvGpj2G34-2" value="Lo0" style="rounded=1;whiteSpace=wrap;html=1;fillColor=#ffe6cc;strokeColor=#d79b00;arcSize=50;" parent="1" vertex="1">
          <mxGeometry x="1401" y="160" width="40" height="20" as="geometry" />
        </mxCell>
        <mxCell id="yU12biAtWJXvvGpj2G34-3" value="&lt;div&gt;172.16.1.1/32&lt;/div&gt;&lt;div&gt;2001:db8:b1::1/128&lt;br&gt;&lt;/div&gt;" style="rounded=0;orthogonalLoop=1;jettySize=auto;html=1;endArrow=none;endFill=0;startArrow=oval;startFill=1;entryX=1;entryY=0.5;entryDx=0;entryDy=0;" parent="1" target="yU12biAtWJXvvGpj2G34-2" edge="1">
          <mxGeometry relative="1" as="geometry">
            <mxPoint x="1559" y="170" as="sourcePoint" />
            <mxPoint x="1401" y="220" as="targetPoint" />
          </mxGeometry>
        </mxCell>
        <mxCell id="yU12biAtWJXvvGpj2G34-4" value="Lo0" style="rounded=1;whiteSpace=wrap;html=1;fillColor=#ffe6cc;strokeColor=#d79b00;arcSize=50;" parent="1" vertex="1">
          <mxGeometry x="1401" y="400" width="40" height="20" as="geometry" />
        </mxCell>
        <mxCell id="yU12biAtWJXvvGpj2G34-5" value="&lt;div&gt;172.16.1.1/32&lt;/div&gt;&lt;div&gt;2001:db8:b1::1/48&lt;br&gt;&lt;/div&gt;" style="rounded=0;orthogonalLoop=1;jettySize=auto;html=1;endArrow=none;endFill=0;startArrow=oval;startFill=1;entryX=1;entryY=0.5;entryDx=0;entryDy=0;" parent="1" target="yU12biAtWJXvvGpj2G34-4" edge="1">
          <mxGeometry relative="1" as="geometry">
            <mxPoint x="1559" y="410" as="sourcePoint" />
            <mxPoint x="1401" y="460" as="targetPoint" />
          </mxGeometry>
        </mxCell>
        <mxCell id="yU12biAtWJXvvGpj2G34-6" value="Lo0" style="rounded=1;whiteSpace=wrap;html=1;fillColor=#ffe6cc;strokeColor=#d79b00;arcSize=50;" parent="1" vertex="1">
          <mxGeometry x="1401" y="640" width="40" height="20" as="geometry" />
        </mxCell>
        <mxCell id="yU12biAtWJXvvGpj2G34-7" value="&lt;div&gt;172.16.1.1/32&lt;/div&gt;&lt;div&gt;2001:db8:b1::1/128&lt;br&gt;&lt;/div&gt;" style="rounded=0;orthogonalLoop=1;jettySize=auto;html=1;endArrow=none;endFill=0;startArrow=oval;startFill=1;entryX=1;entryY=0.5;entryDx=0;entryDy=0;" parent="1" target="yU12biAtWJXvvGpj2G34-6" edge="1">
          <mxGeometry relative="1" as="geometry">
            <mxPoint x="1559" y="650" as="sourcePoint" />
            <mxPoint x="1401" y="700" as="targetPoint" />
          </mxGeometry>
        </mxCell>
        <mxCell id="yU12biAtWJXvvGpj2G34-8" value="Lo0" style="rounded=1;whiteSpace=wrap;html=1;fillColor=#ffe6cc;strokeColor=#d79b00;arcSize=50;" parent="1" vertex="1">
          <mxGeometry x="1401" y="880" width="40" height="20" as="geometry" />
        </mxCell>
        <mxCell id="yU12biAtWJXvvGpj2G34-9" value="&lt;div&gt;172.16.1.1/32&lt;/div&gt;&lt;div&gt;2001:db8:b1::1/128&lt;br&gt;&lt;/div&gt;" style="rounded=0;orthogonalLoop=1;jettySize=auto;html=1;endArrow=none;endFill=0;startArrow=oval;startFill=1;entryX=1;entryY=0.5;entryDx=0;entryDy=0;" parent="1" target="yU12biAtWJXvvGpj2G34-8" edge="1">
          <mxGeometry relative="1" as="geometry">
            <mxPoint x="1559" y="890" as="sourcePoint" />
            <mxPoint x="1401" y="940" as="targetPoint" />
          </mxGeometry>
        </mxCell>
        <mxCell id="D1HzF3u88ukBO3dfoILv-2" value="Note: we also create a bunch of secondary addresses on eth1 (.101 - .109) that are used by iperf3" style="text;html=1;align=center;verticalAlign=middle;whiteSpace=wrap;rounded=0;fontStyle=1" vertex="1" parent="1">
          <mxGeometry x="180" y="800" width="200" height="120" as="geometry" />
        </mxCell>
      </root>
    </mxGraphModel>
  </diagram>
  <diagram id="KYWzYRHi7FhimAe3XHaa" name="Routing">
    <mxGraphModel dx="1042" dy="663" grid="1" gridSize="10" guides="1" tooltips="1" connect="1" arrows="1" fold="1" page="1" pageScale="1" pageWidth="827" pageHeight="1169" math="0" shadow="0">
      <root>
        <mxCell id="0" />
        <mxCell id="1" parent="0" />
        <mxCell id="rg699QnFVIcvjDXemvak-12" value="&lt;u&gt;&lt;b&gt;AS 300&lt;/b&gt;&lt;/u&gt;" style="rounded=1;whiteSpace=wrap;html=1;dashed=1;fillColor=#f8cecc;strokeColor=#b85450;labelPosition=center;verticalLabelPosition=middle;align=center;verticalAlign=top;spacingTop=0;perimeterSpacing=0;arcSize=15;" vertex="1" parent="1">
          <mxGeometry x="160" y="400" width="280" height="360" as="geometry" />
        </mxCell>
        <mxCell id="4OIreddPB0nYHzMBut79-58" value="&lt;u&gt;&lt;b&gt;AS 300&lt;/b&gt;&lt;/u&gt;" style="rounded=1;whiteSpace=wrap;html=1;dashed=1;fillColor=#ffe6cc;strokeColor=#d79b00;labelPosition=center;verticalLabelPosition=middle;align=center;verticalAlign=top;spacingTop=0;perimeterSpacing=0;arcSize=27;" vertex="1" parent="1">
          <mxGeometry x="480" y="400" width="140" height="360" as="geometry" />
        </mxCell>
        <mxCell id="4OIreddPB0nYHzMBut79-56" value="&lt;u&gt;&lt;b&gt;AS 65204&lt;/b&gt;&lt;/u&gt;" style="rounded=1;whiteSpace=wrap;html=1;dashed=1;fillColor=#d5e8d4;strokeColor=#82b366;labelPosition=center;verticalLabelPosition=middle;align=center;verticalAlign=top;spacingTop=0;perimeterSpacing=0;arcSize=19;" vertex="1" parent="1">
          <mxGeometry x="1120" y="840" width="280" height="200" as="geometry" />
        </mxCell>
        <mxCell id="4OIreddPB0nYHzMBut79-57" value="&lt;u&gt;&lt;b&gt;AS 65104&lt;/b&gt;&lt;/u&gt;" style="rounded=1;whiteSpace=wrap;html=1;dashed=1;fillColor=#e1d5e7;strokeColor=#9673a6;labelPosition=center;verticalLabelPosition=middle;align=center;verticalAlign=top;spacingTop=0;perimeterSpacing=0;arcSize=19;" vertex="1" parent="1">
          <mxGeometry x="800" y="840" width="280" height="200" as="geometry" />
        </mxCell>
        <mxCell id="4OIreddPB0nYHzMBut79-54" value="&lt;u&gt;&lt;b&gt;AS 65203&lt;/b&gt;&lt;/u&gt;" style="rounded=1;whiteSpace=wrap;html=1;dashed=1;fillColor=#d5e8d4;strokeColor=#82b366;labelPosition=center;verticalLabelPosition=middle;align=center;verticalAlign=top;spacingTop=0;perimeterSpacing=0;arcSize=19;" vertex="1" parent="1">
          <mxGeometry x="1120" y="600" width="280" height="200" as="geometry" />
        </mxCell>
        <mxCell id="4OIreddPB0nYHzMBut79-55" value="&lt;u&gt;&lt;b&gt;AS 65103&lt;/b&gt;&lt;/u&gt;" style="rounded=1;whiteSpace=wrap;html=1;dashed=1;fillColor=#e1d5e7;strokeColor=#9673a6;labelPosition=center;verticalLabelPosition=middle;align=center;verticalAlign=top;spacingTop=0;perimeterSpacing=0;arcSize=19;" vertex="1" parent="1">
          <mxGeometry x="800" y="600" width="280" height="200" as="geometry" />
        </mxCell>
        <mxCell id="4OIreddPB0nYHzMBut79-52" value="&lt;u&gt;&lt;b&gt;AS 65202&lt;/b&gt;&lt;/u&gt;" style="rounded=1;whiteSpace=wrap;html=1;dashed=1;fillColor=#d5e8d4;strokeColor=#82b366;labelPosition=center;verticalLabelPosition=middle;align=center;verticalAlign=top;spacingTop=0;perimeterSpacing=0;arcSize=19;" vertex="1" parent="1">
          <mxGeometry x="1120" y="360" width="280" height="200" as="geometry" />
        </mxCell>
        <mxCell id="4OIreddPB0nYHzMBut79-53" value="&lt;u&gt;&lt;b&gt;AS 65102&lt;/b&gt;&lt;/u&gt;" style="rounded=1;whiteSpace=wrap;html=1;dashed=1;fillColor=#e1d5e7;strokeColor=#9673a6;labelPosition=center;verticalLabelPosition=middle;align=center;verticalAlign=top;spacingTop=0;perimeterSpacing=0;arcSize=19;" vertex="1" parent="1">
          <mxGeometry x="800" y="360" width="280" height="200" as="geometry" />
        </mxCell>
        <mxCell id="4OIreddPB0nYHzMBut79-51" value="&lt;u&gt;&lt;b&gt;AS 65201&lt;/b&gt;&lt;/u&gt;" style="rounded=1;whiteSpace=wrap;html=1;dashed=1;fillColor=#d5e8d4;strokeColor=#82b366;labelPosition=center;verticalLabelPosition=middle;align=center;verticalAlign=top;spacingTop=0;perimeterSpacing=0;arcSize=19;" vertex="1" parent="1">
          <mxGeometry x="1120" y="120" width="280" height="200" as="geometry" />
        </mxCell>
        <mxCell id="4OIreddPB0nYHzMBut79-49" value="&lt;u&gt;&lt;b&gt;AS 65101&lt;/b&gt;&lt;/u&gt;" style="rounded=1;whiteSpace=wrap;html=1;dashed=1;fillColor=#e1d5e7;strokeColor=#9673a6;labelPosition=center;verticalLabelPosition=middle;align=center;verticalAlign=top;spacingTop=0;perimeterSpacing=0;arcSize=19;" vertex="1" parent="1">
          <mxGeometry x="800" y="120" width="280" height="200" as="geometry" />
        </mxCell>
        <mxCell id="vvWYicQi5511n25otHx3-4" value="&lt;u&gt;&lt;b&gt;AS 65000&lt;/b&gt;&lt;/u&gt;" style="rounded=1;whiteSpace=wrap;html=1;dashed=1;fillColor=#dae8fc;strokeColor=#6c8ebf;labelPosition=center;verticalLabelPosition=middle;align=center;verticalAlign=top;spacingTop=0;perimeterSpacing=0;arcSize=27;" vertex="1" parent="1">
          <mxGeometry x="620" y="400" width="140" height="360" as="geometry" />
        </mxCell>
        <mxCell id="vvWYicQi5511n25otHx3-1" value="&lt;u&gt;&lt;b&gt;ceos-spine2&lt;/b&gt;&lt;/u&gt;" style="rounded=0;whiteSpace=wrap;html=1;dashed=1;fillColor=#f5f5f5;strokeColor=#666666;fontColor=#333333;labelPosition=center;verticalLabelPosition=middle;align=center;verticalAlign=top;spacingTop=0;" vertex="1" parent="1">
          <mxGeometry x="560" y="600" width="120" height="120" as="geometry" />
        </mxCell>
        <mxCell id="vvWYicQi5511n25otHx3-2" value="ID 10.0.0.102" style="text;html=1;align=center;verticalAlign=middle;whiteSpace=wrap;rounded=0;" vertex="1" parent="1">
          <mxGeometry x="560" y="700" width="120" height="20" as="geometry" />
        </mxCell>
        <mxCell id="vvWYicQi5511n25otHx3-3" value="" style="fontColor=#ffffff;verticalAlign=top;verticalLabelPosition=bottom;labelPosition=center;align=center;html=1;outlineConnect=0;fillColor=#0050ef;strokeColor=#001DBC;gradientDirection=north;strokeWidth=2;shape=mxgraph.networks.switch;" vertex="1" parent="1">
          <mxGeometry x="570" y="645" width="100" height="30" as="geometry" />
        </mxCell>
        <mxCell id="V1kbYnNCOtu6JzeTLy3t-2" value="&lt;u&gt;&lt;b&gt;ceos-spine1&lt;/b&gt;&lt;/u&gt;" style="rounded=0;whiteSpace=wrap;html=1;dashed=1;fillColor=#f5f5f5;strokeColor=#666666;fontColor=#333333;labelPosition=center;verticalLabelPosition=middle;align=center;verticalAlign=top;spacingTop=0;" vertex="1" parent="1">
          <mxGeometry x="560" y="440" width="120" height="120" as="geometry" />
        </mxCell>
        <mxCell id="V1kbYnNCOtu6JzeTLy3t-3" value="ID 10.0.0.101" style="text;html=1;align=center;verticalAlign=middle;whiteSpace=wrap;rounded=0;" vertex="1" parent="1">
          <mxGeometry x="560" y="540" width="120" height="20" as="geometry" />
        </mxCell>
        <mxCell id="V1kbYnNCOtu6JzeTLy3t-4" value="" style="fontColor=#ffffff;verticalAlign=top;verticalLabelPosition=bottom;labelPosition=center;align=center;html=1;outlineConnect=0;fillColor=#0050ef;strokeColor=#001DBC;gradientDirection=north;strokeWidth=2;shape=mxgraph.networks.switch;" vertex="1" parent="1">
          <mxGeometry x="570" y="485" width="100" height="30" as="geometry" />
        </mxCell>
        <mxCell id="JvUo6gak602ZUn_7Bc0C-1" value="Eth1" style="rounded=1;whiteSpace=wrap;html=1;fillColor=#fff2cc;strokeColor=#d6b656;arcSize=50;" vertex="1" parent="1">
          <mxGeometry x="841" y="180" width="40" height="20" as="geometry" />
        </mxCell>
        <mxCell id="JvUo6gak602ZUn_7Bc0C-2" value="Eth1" style="rounded=1;whiteSpace=wrap;html=1;fillColor=#fff2cc;strokeColor=#d6b656;arcSize=50;" vertex="1" parent="1">
          <mxGeometry x="680" y="440" width="40" height="20" as="geometry" />
        </mxCell>
        <mxCell id="JvUo6gak602ZUn_7Bc0C-3" style="rounded=0;orthogonalLoop=1;jettySize=auto;html=1;exitX=0;exitY=0.5;exitDx=0;exitDy=0;entryX=1;entryY=0.5;entryDx=0;entryDy=0;endArrow=oval;endFill=1;startArrow=oval;startFill=1;" edge="1" parent="1" source="JvUo6gak602ZUn_7Bc0C-1" target="JvUo6gak602ZUn_7Bc0C-2">
          <mxGeometry relative="1" as="geometry">
            <mxPoint x="841" y="499.5" as="sourcePoint" />
            <mxPoint x="680" y="499.5" as="targetPoint" />
          </mxGeometry>
        </mxCell>
        <mxCell id="JvUo6gak602ZUn_7Bc0C-5" value="Eth1" style="rounded=1;whiteSpace=wrap;html=1;fillColor=#fff2cc;strokeColor=#d6b656;arcSize=50;" vertex="1" parent="1">
          <mxGeometry x="842" y="420" width="40" height="20" as="geometry" />
        </mxCell>
        <mxCell id="JvUo6gak602ZUn_7Bc0C-6" value="Eth2" style="rounded=1;whiteSpace=wrap;html=1;fillColor=#fff2cc;strokeColor=#d6b656;arcSize=50;" vertex="1" parent="1">
          <mxGeometry x="680" y="460" width="40" height="20" as="geometry" />
        </mxCell>
        <mxCell id="JvUo6gak602ZUn_7Bc0C-7" value="Eth1" style="rounded=1;whiteSpace=wrap;html=1;fillColor=#fff2cc;strokeColor=#d6b656;arcSize=50;" vertex="1" parent="1">
          <mxGeometry x="841" y="660" width="40" height="20" as="geometry" />
        </mxCell>
        <mxCell id="JvUo6gak602ZUn_7Bc0C-8" value="Eth3" style="rounded=1;whiteSpace=wrap;html=1;fillColor=#fff2cc;strokeColor=#d6b656;arcSize=50;" vertex="1" parent="1">
          <mxGeometry x="681" y="520" width="40" height="20" as="geometry" />
        </mxCell>
        <mxCell id="JvUo6gak602ZUn_7Bc0C-9" style="rounded=0;orthogonalLoop=1;jettySize=auto;html=1;exitX=0;exitY=0.5;exitDx=0;exitDy=0;entryX=1;entryY=0.5;entryDx=0;entryDy=0;endArrow=oval;endFill=1;startArrow=oval;startFill=1;" edge="1" parent="1" source="JvUo6gak602ZUn_7Bc0C-7" target="JvUo6gak602ZUn_7Bc0C-8">
          <mxGeometry relative="1" as="geometry">
            <mxPoint x="842" y="579.5" as="sourcePoint" />
            <mxPoint x="681" y="579.5" as="targetPoint" />
          </mxGeometry>
        </mxCell>
        <mxCell id="JvUo6gak602ZUn_7Bc0C-10" value="Eth1" style="rounded=1;whiteSpace=wrap;html=1;fillColor=#fff2cc;strokeColor=#d6b656;arcSize=50;" vertex="1" parent="1">
          <mxGeometry x="842" y="900" width="40" height="20" as="geometry" />
        </mxCell>
        <mxCell id="JvUo6gak602ZUn_7Bc0C-11" value="Eth4" style="rounded=1;whiteSpace=wrap;html=1;fillColor=#fff2cc;strokeColor=#d6b656;arcSize=50;" vertex="1" parent="1">
          <mxGeometry x="681" y="540" width="40" height="20" as="geometry" />
        </mxCell>
        <mxCell id="JvUo6gak602ZUn_7Bc0C-12" style="rounded=0;orthogonalLoop=1;jettySize=auto;html=1;exitX=0;exitY=0.5;exitDx=0;exitDy=0;entryX=1;entryY=0.5;entryDx=0;entryDy=0;endArrow=oval;endFill=1;startArrow=oval;startFill=1;" edge="1" parent="1" source="JvUo6gak602ZUn_7Bc0C-10" target="JvUo6gak602ZUn_7Bc0C-11">
          <mxGeometry relative="1" as="geometry">
            <mxPoint x="842" y="599.5" as="sourcePoint" />
            <mxPoint x="681" y="599.5" as="targetPoint" />
          </mxGeometry>
        </mxCell>
        <mxCell id="JvUo6gak602ZUn_7Bc0C-14" value="Eth2" style="rounded=1;whiteSpace=wrap;html=1;fillColor=#fff2cc;strokeColor=#d6b656;arcSize=50;" vertex="1" parent="1">
          <mxGeometry x="841" y="240" width="40" height="20" as="geometry" />
        </mxCell>
        <mxCell id="JvUo6gak602ZUn_7Bc0C-15" value="Eth1" style="rounded=1;whiteSpace=wrap;html=1;fillColor=#fff2cc;strokeColor=#d6b656;arcSize=50;" vertex="1" parent="1">
          <mxGeometry x="681" y="600" width="40" height="20" as="geometry" />
        </mxCell>
        <mxCell id="JvUo6gak602ZUn_7Bc0C-16" style="rounded=0;orthogonalLoop=1;jettySize=auto;html=1;exitX=0;exitY=0.5;exitDx=0;exitDy=0;entryX=1;entryY=0.5;entryDx=0;entryDy=0;endArrow=oval;endFill=1;startArrow=oval;startFill=1;" edge="1" parent="1" source="JvUo6gak602ZUn_7Bc0C-14" target="JvUo6gak602ZUn_7Bc0C-15">
          <mxGeometry relative="1" as="geometry">
            <mxPoint x="842" y="739.5" as="sourcePoint" />
            <mxPoint x="681" y="739.5" as="targetPoint" />
          </mxGeometry>
        </mxCell>
        <mxCell id="JvUo6gak602ZUn_7Bc0C-18" value="Eth2" style="rounded=1;whiteSpace=wrap;html=1;fillColor=#fff2cc;strokeColor=#d6b656;arcSize=50;" vertex="1" parent="1">
          <mxGeometry x="841" y="480" width="40" height="20" as="geometry" />
        </mxCell>
        <mxCell id="JvUo6gak602ZUn_7Bc0C-19" value="Eth2" style="rounded=1;whiteSpace=wrap;html=1;fillColor=#fff2cc;strokeColor=#d6b656;arcSize=50;" vertex="1" parent="1">
          <mxGeometry x="681" y="620" width="40" height="20" as="geometry" />
        </mxCell>
        <mxCell id="JvUo6gak602ZUn_7Bc0C-20" style="rounded=0;orthogonalLoop=1;jettySize=auto;html=1;exitX=0;exitY=0.5;exitDx=0;exitDy=0;entryX=1;entryY=0.5;entryDx=0;entryDy=0;endArrow=oval;endFill=1;startArrow=oval;startFill=1;" edge="1" parent="1" source="JvUo6gak602ZUn_7Bc0C-18" target="JvUo6gak602ZUn_7Bc0C-19">
          <mxGeometry relative="1" as="geometry">
            <mxPoint x="842" y="759.5" as="sourcePoint" />
            <mxPoint x="681" y="759.5" as="targetPoint" />
          </mxGeometry>
        </mxCell>
        <mxCell id="JvUo6gak602ZUn_7Bc0C-22" value="Eth2" style="rounded=1;whiteSpace=wrap;html=1;fillColor=#fff2cc;strokeColor=#d6b656;arcSize=50;" vertex="1" parent="1">
          <mxGeometry x="843" y="720" width="40" height="20" as="geometry" />
        </mxCell>
        <mxCell id="JvUo6gak602ZUn_7Bc0C-23" value="Eth3" style="rounded=1;whiteSpace=wrap;html=1;fillColor=#fff2cc;strokeColor=#d6b656;arcSize=50;" vertex="1" parent="1">
          <mxGeometry x="682" y="680" width="40" height="20" as="geometry" />
        </mxCell>
        <mxCell id="JvUo6gak602ZUn_7Bc0C-24" style="rounded=0;orthogonalLoop=1;jettySize=auto;html=1;exitX=0;exitY=0.5;exitDx=0;exitDy=0;entryX=1;entryY=0.5;entryDx=0;entryDy=0;endArrow=oval;endFill=1;startArrow=oval;startFill=1;" edge="1" parent="1" source="JvUo6gak602ZUn_7Bc0C-22" target="JvUo6gak602ZUn_7Bc0C-23">
          <mxGeometry relative="1" as="geometry">
            <mxPoint x="843" y="739.5" as="sourcePoint" />
            <mxPoint x="682" y="739.5" as="targetPoint" />
          </mxGeometry>
        </mxCell>
        <mxCell id="JvUo6gak602ZUn_7Bc0C-26" value="Eth2" style="rounded=1;whiteSpace=wrap;html=1;fillColor=#fff2cc;strokeColor=#d6b656;arcSize=50;" vertex="1" parent="1">
          <mxGeometry x="841" y="960" width="40" height="20" as="geometry" />
        </mxCell>
        <mxCell id="JvUo6gak602ZUn_7Bc0C-27" value="Eth4" style="rounded=1;whiteSpace=wrap;html=1;fillColor=#fff2cc;strokeColor=#d6b656;arcSize=50;" vertex="1" parent="1">
          <mxGeometry x="682" y="700" width="40" height="20" as="geometry" />
        </mxCell>
        <mxCell id="JvUo6gak602ZUn_7Bc0C-28" value="" style="rounded=0;orthogonalLoop=1;jettySize=auto;html=1;exitX=0;exitY=0.5;exitDx=0;exitDy=0;entryX=1;entryY=0.5;entryDx=0;entryDy=0;endArrow=oval;endFill=1;startArrow=oval;startFill=1;" edge="1" parent="1" source="JvUo6gak602ZUn_7Bc0C-26" target="JvUo6gak602ZUn_7Bc0C-27">
          <mxGeometry relative="1" as="geometry">
            <mxPoint x="843" y="759.5" as="sourcePoint" />
            <mxPoint x="682" y="759.5" as="targetPoint" />
          </mxGeometry>
        </mxCell>
        <mxCell id="JvUo6gak602ZUn_7Bc0C-29" style="rounded=0;orthogonalLoop=1;jettySize=auto;html=1;exitX=0;exitY=0.5;exitDx=0;exitDy=0;entryX=1;entryY=0.5;entryDx=0;entryDy=0;endArrow=oval;endFill=1;startArrow=oval;startFill=1;" edge="1" parent="1" source="JvUo6gak602ZUn_7Bc0C-5" target="JvUo6gak602ZUn_7Bc0C-6">
          <mxGeometry relative="1" as="geometry">
            <mxPoint x="841" y="519.5" as="sourcePoint" />
            <mxPoint x="680" y="519.5" as="targetPoint" />
          </mxGeometry>
        </mxCell>
        <mxCell id="4OIreddPB0nYHzMBut79-1" value="&lt;u&gt;&lt;b&gt;bird-serv1&lt;/b&gt;&lt;/u&gt;" style="rounded=0;whiteSpace=wrap;html=1;dashed=1;fillColor=#f5f5f5;strokeColor=#666666;fontColor=#333333;labelPosition=center;verticalLabelPosition=middle;align=center;verticalAlign=top;spacingTop=0;" vertex="1" parent="1">
          <mxGeometry x="1200" y="160" width="120" height="120" as="geometry" />
        </mxCell>
        <mxCell id="4OIreddPB0nYHzMBut79-2" value="ID 10.0.0.121" style="text;html=1;align=center;verticalAlign=middle;whiteSpace=wrap;rounded=0;" vertex="1" parent="1">
          <mxGeometry x="1200" y="260" width="120" height="20" as="geometry" />
        </mxCell>
        <mxCell id="4OIreddPB0nYHzMBut79-3" value="" style="fontColor=#ffffff;verticalAlign=top;verticalLabelPosition=bottom;labelPosition=center;align=center;html=1;outlineConnect=0;fillColor=#0050ef;strokeColor=#001DBC;gradientDirection=north;strokeWidth=2;shape=mxgraph.networks.desktop_pc;" vertex="1" parent="1">
          <mxGeometry x="1245" y="190" width="30" height="60" as="geometry" />
        </mxCell>
        <mxCell id="4OIreddPB0nYHzMBut79-4" value="Eth1" style="rounded=1;whiteSpace=wrap;html=1;fillColor=#fff2cc;strokeColor=#d6b656;arcSize=50;" vertex="1" parent="1">
          <mxGeometry x="1160" y="210" width="40" height="20" as="geometry" />
        </mxCell>
        <mxCell id="4OIreddPB0nYHzMBut79-5" value="&lt;u&gt;&lt;b&gt;ceos-leaf1&lt;/b&gt;&lt;/u&gt;" style="rounded=0;whiteSpace=wrap;html=1;dashed=1;fillColor=#f5f5f5;strokeColor=#666666;fontColor=#333333;labelPosition=center;verticalLabelPosition=middle;align=center;verticalAlign=top;spacingTop=0;" vertex="1" parent="1">
          <mxGeometry x="881" y="160" width="120" height="120" as="geometry" />
        </mxCell>
        <mxCell id="4OIreddPB0nYHzMBut79-6" value="" style="verticalAlign=top;verticalLabelPosition=bottom;labelPosition=center;align=center;html=1;outlineConnect=0;fillColor=#0050ef;strokeColor=#001DBC;gradientDirection=north;strokeWidth=2;shape=mxgraph.networks.router;fontColor=#ffffff;" vertex="1" parent="1">
          <mxGeometry x="891" y="205" width="100" height="30" as="geometry" />
        </mxCell>
        <mxCell id="4OIreddPB0nYHzMBut79-7" value="ID 10.0.0.111" style="text;html=1;align=center;verticalAlign=middle;whiteSpace=wrap;rounded=0;" vertex="1" parent="1">
          <mxGeometry x="881" y="260" width="120" height="20" as="geometry" />
        </mxCell>
        <mxCell id="4OIreddPB0nYHzMBut79-8" value="&lt;u&gt;&lt;b&gt;ceos-leaf2&lt;/b&gt;&lt;/u&gt;" style="rounded=0;whiteSpace=wrap;html=1;dashed=1;fillColor=#f5f5f5;strokeColor=#666666;fontColor=#333333;labelPosition=center;verticalLabelPosition=middle;align=center;verticalAlign=top;spacingTop=0;" vertex="1" parent="1">
          <mxGeometry x="881" y="400" width="120" height="120" as="geometry" />
        </mxCell>
        <mxCell id="4OIreddPB0nYHzMBut79-9" value="" style="verticalAlign=top;verticalLabelPosition=bottom;labelPosition=center;align=center;html=1;outlineConnect=0;fillColor=#0050ef;strokeColor=#001DBC;gradientDirection=north;strokeWidth=2;shape=mxgraph.networks.router;fontColor=#ffffff;" vertex="1" parent="1">
          <mxGeometry x="891" y="445" width="100" height="30" as="geometry" />
        </mxCell>
        <mxCell id="4OIreddPB0nYHzMBut79-10" value="ID 10.0.0.112" style="text;html=1;align=center;verticalAlign=middle;whiteSpace=wrap;rounded=0;" vertex="1" parent="1">
          <mxGeometry x="881" y="500" width="120" height="20" as="geometry" />
        </mxCell>
        <mxCell id="4OIreddPB0nYHzMBut79-11" value="&lt;u&gt;&lt;b&gt;ceos-leaf3&lt;/b&gt;&lt;/u&gt;" style="rounded=0;whiteSpace=wrap;html=1;dashed=1;fillColor=#f5f5f5;strokeColor=#666666;fontColor=#333333;labelPosition=center;verticalLabelPosition=middle;align=center;verticalAlign=top;spacingTop=0;" vertex="1" parent="1">
          <mxGeometry x="882" y="640" width="120" height="120" as="geometry" />
        </mxCell>
        <mxCell id="4OIreddPB0nYHzMBut79-12" value="" style="verticalAlign=top;verticalLabelPosition=bottom;labelPosition=center;align=center;html=1;outlineConnect=0;fillColor=#0050ef;strokeColor=#001DBC;gradientDirection=north;strokeWidth=2;shape=mxgraph.networks.router;fontColor=#ffffff;" vertex="1" parent="1">
          <mxGeometry x="892" y="685" width="100" height="30" as="geometry" />
        </mxCell>
        <mxCell id="4OIreddPB0nYHzMBut79-13" value="ID 10.0.0.113" style="text;html=1;align=center;verticalAlign=middle;whiteSpace=wrap;rounded=0;" vertex="1" parent="1">
          <mxGeometry x="882" y="740" width="120" height="20" as="geometry" />
        </mxCell>
        <mxCell id="4OIreddPB0nYHzMBut79-14" value="&lt;u&gt;&lt;b&gt;ceos-leaf4&lt;/b&gt;&lt;/u&gt;" style="rounded=0;whiteSpace=wrap;html=1;dashed=1;fillColor=#f5f5f5;strokeColor=#666666;fontColor=#333333;labelPosition=center;verticalLabelPosition=middle;align=center;verticalAlign=top;spacingTop=0;" vertex="1" parent="1">
          <mxGeometry x="881" y="880" width="120" height="120" as="geometry" />
        </mxCell>
        <mxCell id="4OIreddPB0nYHzMBut79-15" value="" style="verticalAlign=top;verticalLabelPosition=bottom;labelPosition=center;align=center;html=1;outlineConnect=0;fillColor=#0050ef;strokeColor=#001DBC;gradientDirection=north;strokeWidth=2;shape=mxgraph.networks.router;fontColor=#ffffff;" vertex="1" parent="1">
          <mxGeometry x="891" y="925" width="100" height="30" as="geometry" />
        </mxCell>
        <mxCell id="4OIreddPB0nYHzMBut79-16" value="ID 10.0.0.114" style="text;html=1;align=center;verticalAlign=middle;whiteSpace=wrap;rounded=0;" vertex="1" parent="1">
          <mxGeometry x="881" y="980" width="120" height="20" as="geometry" />
        </mxCell>
        <mxCell id="4OIreddPB0nYHzMBut79-17" value="Eth5" style="rounded=1;whiteSpace=wrap;html=1;fillColor=#fff2cc;strokeColor=#d6b656;arcSize=50;" vertex="1" parent="1">
          <mxGeometry x="1001" y="210" width="40" height="20" as="geometry" />
        </mxCell>
        <mxCell id="4OIreddPB0nYHzMBut79-18" style="rounded=0;orthogonalLoop=1;jettySize=auto;html=1;exitX=0;exitY=0.5;exitDx=0;exitDy=0;entryX=1;entryY=0.5;entryDx=0;entryDy=0;endArrow=oval;endFill=1;startArrow=oval;startFill=1;" edge="1" parent="1" source="4OIreddPB0nYHzMBut79-4" target="4OIreddPB0nYHzMBut79-17">
          <mxGeometry relative="1" as="geometry">
            <mxPoint x="1202" y="269.5" as="sourcePoint" />
            <mxPoint x="1041" y="269.5" as="targetPoint" />
          </mxGeometry>
        </mxCell>
        <mxCell id="4OIreddPB0nYHzMBut79-20" value="&lt;u&gt;&lt;b&gt;bird-serv2&lt;/b&gt;&lt;/u&gt;" style="rounded=0;whiteSpace=wrap;html=1;dashed=1;fillColor=#f5f5f5;strokeColor=#666666;fontColor=#333333;labelPosition=center;verticalLabelPosition=middle;align=center;verticalAlign=top;spacingTop=0;" vertex="1" parent="1">
          <mxGeometry x="1200" y="400" width="120" height="120" as="geometry" />
        </mxCell>
        <mxCell id="4OIreddPB0nYHzMBut79-21" value="ID 10.0.0.122" style="text;html=1;align=center;verticalAlign=middle;whiteSpace=wrap;rounded=0;" vertex="1" parent="1">
          <mxGeometry x="1200" y="500" width="120" height="20" as="geometry" />
        </mxCell>
        <mxCell id="4OIreddPB0nYHzMBut79-22" value="" style="fontColor=#ffffff;verticalAlign=top;verticalLabelPosition=bottom;labelPosition=center;align=center;html=1;outlineConnect=0;fillColor=#0050ef;strokeColor=#001DBC;gradientDirection=north;strokeWidth=2;shape=mxgraph.networks.desktop_pc;" vertex="1" parent="1">
          <mxGeometry x="1245" y="430" width="30" height="60" as="geometry" />
        </mxCell>
        <mxCell id="4OIreddPB0nYHzMBut79-23" value="Eth1" style="rounded=1;whiteSpace=wrap;html=1;fillColor=#fff2cc;strokeColor=#d6b656;arcSize=50;" vertex="1" parent="1">
          <mxGeometry x="1160" y="450" width="40" height="20" as="geometry" />
        </mxCell>
        <mxCell id="4OIreddPB0nYHzMBut79-24" value="Eth5" style="rounded=1;whiteSpace=wrap;html=1;fillColor=#fff2cc;strokeColor=#d6b656;arcSize=50;" vertex="1" parent="1">
          <mxGeometry x="1001" y="450" width="40" height="20" as="geometry" />
        </mxCell>
        <mxCell id="4OIreddPB0nYHzMBut79-25" style="rounded=0;orthogonalLoop=1;jettySize=auto;html=1;exitX=0;exitY=0.5;exitDx=0;exitDy=0;entryX=1;entryY=0.5;entryDx=0;entryDy=0;endArrow=oval;endFill=1;startArrow=oval;startFill=1;" edge="1" parent="1" source="4OIreddPB0nYHzMBut79-23" target="4OIreddPB0nYHzMBut79-24">
          <mxGeometry relative="1" as="geometry">
            <mxPoint x="1202" y="509.5" as="sourcePoint" />
            <mxPoint x="1041" y="509.5" as="targetPoint" />
          </mxGeometry>
        </mxCell>
        <mxCell id="4OIreddPB0nYHzMBut79-27" value="&lt;u&gt;&lt;b&gt;bird-serv3&lt;/b&gt;&lt;/u&gt;" style="rounded=0;whiteSpace=wrap;html=1;dashed=1;fillColor=#f5f5f5;strokeColor=#666666;fontColor=#333333;labelPosition=center;verticalLabelPosition=middle;align=center;verticalAlign=top;spacingTop=0;" vertex="1" parent="1">
          <mxGeometry x="1200" y="640" width="120" height="120" as="geometry" />
        </mxCell>
        <mxCell id="4OIreddPB0nYHzMBut79-28" value="ID 10.0.0.123" style="text;html=1;align=center;verticalAlign=middle;whiteSpace=wrap;rounded=0;" vertex="1" parent="1">
          <mxGeometry x="1200" y="740" width="120" height="20" as="geometry" />
        </mxCell>
        <mxCell id="4OIreddPB0nYHzMBut79-29" value="" style="fontColor=#ffffff;verticalAlign=top;verticalLabelPosition=bottom;labelPosition=center;align=center;html=1;outlineConnect=0;fillColor=#0050ef;strokeColor=#001DBC;gradientDirection=north;strokeWidth=2;shape=mxgraph.networks.desktop_pc;" vertex="1" parent="1">
          <mxGeometry x="1245" y="670" width="30" height="60" as="geometry" />
        </mxCell>
        <mxCell id="4OIreddPB0nYHzMBut79-30" value="Eth1" style="rounded=1;whiteSpace=wrap;html=1;fillColor=#fff2cc;strokeColor=#d6b656;arcSize=50;" vertex="1" parent="1">
          <mxGeometry x="1160" y="690" width="40" height="20" as="geometry" />
        </mxCell>
        <mxCell id="4OIreddPB0nYHzMBut79-31" value="Eth5" style="rounded=1;whiteSpace=wrap;html=1;fillColor=#fff2cc;strokeColor=#d6b656;arcSize=50;" vertex="1" parent="1">
          <mxGeometry x="1002" y="690" width="40" height="20" as="geometry" />
        </mxCell>
        <mxCell id="4OIreddPB0nYHzMBut79-32" style="rounded=0;orthogonalLoop=1;jettySize=auto;html=1;exitX=0;exitY=0.5;exitDx=0;exitDy=0;entryX=1;entryY=0.5;entryDx=0;entryDy=0;endArrow=oval;endFill=1;startArrow=oval;startFill=1;" edge="1" parent="1" source="4OIreddPB0nYHzMBut79-30" target="4OIreddPB0nYHzMBut79-31">
          <mxGeometry relative="1" as="geometry">
            <mxPoint x="1203" y="749.5" as="sourcePoint" />
            <mxPoint x="1042" y="749.5" as="targetPoint" />
          </mxGeometry>
        </mxCell>
        <mxCell id="4OIreddPB0nYHzMBut79-34" value="&lt;u&gt;&lt;b&gt;bird-serv4&lt;/b&gt;&lt;/u&gt;" style="rounded=0;whiteSpace=wrap;html=1;dashed=1;fillColor=#f5f5f5;strokeColor=#666666;fontColor=#333333;labelPosition=center;verticalLabelPosition=middle;align=center;verticalAlign=top;spacingTop=0;" vertex="1" parent="1">
          <mxGeometry x="1200" y="880" width="120" height="120" as="geometry" />
        </mxCell>
        <mxCell id="4OIreddPB0nYHzMBut79-35" value="ID 10.0.0.124" style="text;html=1;align=center;verticalAlign=middle;whiteSpace=wrap;rounded=0;" vertex="1" parent="1">
          <mxGeometry x="1200" y="980" width="120" height="20" as="geometry" />
        </mxCell>
        <mxCell id="4OIreddPB0nYHzMBut79-36" value="" style="fontColor=#ffffff;verticalAlign=top;verticalLabelPosition=bottom;labelPosition=center;align=center;html=1;outlineConnect=0;fillColor=#0050ef;strokeColor=#001DBC;gradientDirection=north;strokeWidth=2;shape=mxgraph.networks.desktop_pc;" vertex="1" parent="1">
          <mxGeometry x="1245" y="910" width="30" height="60" as="geometry" />
        </mxCell>
        <mxCell id="4OIreddPB0nYHzMBut79-37" value="Eth1" style="rounded=1;whiteSpace=wrap;html=1;fillColor=#fff2cc;strokeColor=#d6b656;arcSize=50;" vertex="1" parent="1">
          <mxGeometry x="1160" y="930" width="40" height="20" as="geometry" />
        </mxCell>
        <mxCell id="4OIreddPB0nYHzMBut79-38" value="Eth5" style="rounded=1;whiteSpace=wrap;html=1;fillColor=#fff2cc;strokeColor=#d6b656;arcSize=50;" vertex="1" parent="1">
          <mxGeometry x="1002" y="930" width="40" height="20" as="geometry" />
        </mxCell>
        <mxCell id="4OIreddPB0nYHzMBut79-39" style="rounded=0;orthogonalLoop=1;jettySize=auto;html=1;exitX=0;exitY=0.5;exitDx=0;exitDy=0;entryX=1;entryY=0.5;entryDx=0;entryDy=0;endArrow=oval;endFill=1;startArrow=oval;startFill=1;" edge="1" parent="1" source="4OIreddPB0nYHzMBut79-37" target="4OIreddPB0nYHzMBut79-38">
          <mxGeometry relative="1" as="geometry">
            <mxPoint x="1203" y="989.5" as="sourcePoint" />
            <mxPoint x="1042" y="989.5" as="targetPoint" />
          </mxGeometry>
        </mxCell>
        <mxCell id="rg699QnFVIcvjDXemvak-1" value="&lt;u&gt;&lt;b&gt;ceos-bdr1&lt;/b&gt;&lt;/u&gt;" style="rounded=0;whiteSpace=wrap;html=1;dashed=1;fillColor=#f5f5f5;strokeColor=#666666;fontColor=#333333;labelPosition=center;verticalLabelPosition=middle;align=center;verticalAlign=top;spacingTop=0;" vertex="1" parent="1">
          <mxGeometry x="240" y="520" width="120" height="120" as="geometry" />
        </mxCell>
        <mxCell id="rg699QnFVIcvjDXemvak-2" value="" style="verticalAlign=top;verticalLabelPosition=bottom;labelPosition=center;align=center;html=1;outlineConnect=0;fillColor=#0050ef;strokeColor=#001DBC;gradientDirection=north;strokeWidth=2;shape=mxgraph.networks.router;fontColor=#ffffff;" vertex="1" parent="1">
          <mxGeometry x="250" y="565" width="100" height="30" as="geometry" />
        </mxCell>
        <mxCell id="rg699QnFVIcvjDXemvak-3" value="ID 172.16.0.1" style="text;html=1;align=center;verticalAlign=middle;whiteSpace=wrap;rounded=0;" vertex="1" parent="1">
          <mxGeometry x="240" y="620" width="120" height="20" as="geometry" />
        </mxCell>
        <mxCell id="rg699QnFVIcvjDXemvak-4" value="Eth5" style="rounded=1;whiteSpace=wrap;html=1;fillColor=#fff2cc;strokeColor=#d6b656;arcSize=50;" vertex="1" parent="1">
          <mxGeometry x="520" y="490" width="40" height="20" as="geometry" />
        </mxCell>
        <mxCell id="rg699QnFVIcvjDXemvak-5" value="Eth5" style="rounded=1;whiteSpace=wrap;html=1;fillColor=#fff2cc;strokeColor=#d6b656;arcSize=50;" vertex="1" parent="1">
          <mxGeometry x="520" y="650" width="40" height="20" as="geometry" />
        </mxCell>
        <mxCell id="rg699QnFVIcvjDXemvak-6" value="Eth1" style="rounded=1;whiteSpace=wrap;html=1;fillColor=#fff2cc;strokeColor=#d6b656;arcSize=50;" vertex="1" parent="1">
          <mxGeometry x="360" y="540" width="40" height="20" as="geometry" />
        </mxCell>
        <mxCell id="rg699QnFVIcvjDXemvak-7" value="Eth2" style="rounded=1;whiteSpace=wrap;html=1;fillColor=#fff2cc;strokeColor=#d6b656;arcSize=50;" vertex="1" parent="1">
          <mxGeometry x="360" y="600" width="40" height="20" as="geometry" />
        </mxCell>
        <mxCell id="rg699QnFVIcvjDXemvak-8" style="rounded=0;orthogonalLoop=1;jettySize=auto;html=1;exitX=0;exitY=0.5;exitDx=0;exitDy=0;entryX=1;entryY=0.5;entryDx=0;entryDy=0;endArrow=oval;endFill=1;startArrow=oval;startFill=1;" edge="1" parent="1" source="rg699QnFVIcvjDXemvak-4" target="rg699QnFVIcvjDXemvak-6">
          <mxGeometry relative="1" as="geometry">
            <mxPoint x="520" y="510" as="sourcePoint" />
            <mxPoint x="360" y="695" as="targetPoint" />
          </mxGeometry>
        </mxCell>
        <mxCell id="rg699QnFVIcvjDXemvak-10" style="rounded=0;orthogonalLoop=1;jettySize=auto;html=1;exitX=0;exitY=0.5;exitDx=0;exitDy=0;entryX=1;entryY=0.5;entryDx=0;entryDy=0;endArrow=oval;endFill=1;startArrow=oval;startFill=1;" edge="1" parent="1" source="rg699QnFVIcvjDXemvak-5" target="rg699QnFVIcvjDXemvak-7">
          <mxGeometry relative="1" as="geometry">
            <mxPoint x="530" y="470" as="sourcePoint" />
            <mxPoint x="370" y="560" as="targetPoint" />
          </mxGeometry>
        </mxCell>
      </root>
    </mxGraphModel>
  </diagram>
</mxfile>
